<?xml version="1.0" encoding="UTF-8"?>
<svg version="1.1" xmlns="http://www.w3.org/2000/svg" width="512" height="512">
<path d="M0 0 C3.26701612 2.66358727 6.39330111 5.45632415 9.50390625 8.30078125 C10.303125 9.0175 11.10234375 9.73421875 11.92578125 10.47265625 C23.25825114 21.16214912 31.2098136 34.17437024 37.50390625 48.30078125 C38.22707031 49.88246094 38.22707031 49.88246094 38.96484375 51.49609375 C51.47765633 81.14766781 49.29232467 115.41069625 37.41015625 144.71948242 C35.70301096 148.77685862 33.91060523 152.59701397 31.50390625 156.30078125 C32.01663086 156.55657959 32.52935547 156.81237793 33.05761719 157.07592773 C60.36329169 170.7990774 80.33387809 188.82472986 90.73950195 218.16040039 C98.87375435 243.00418997 96.07395164 269.25245181 84.75390625 292.55078125 C72.24892831 317.03439849 51.67303636 332.7364517 26.09680367 341.46331882 C12.06624449 345.32749588 -2.20872123 344.86645224 -16.64125228 344.80902088 C-20.57449427 344.79779875 -24.50767968 344.80989031 -28.44091797 344.81886292 C-36.12326762 344.83272095 -43.80545173 344.82529496 -51.48779334 344.81018733 C-60.45123317 344.79323813 -69.41463278 344.79654861 -78.37808369 344.80028141 C-94.37953045 344.8061462 -110.38089826 344.79204195 -126.38232422 344.76733398 C-141.87844805 344.74340926 -157.37446648 344.73633465 -172.87060547 344.74682617 C-189.78358156 344.75825659 -206.69650903 344.76013987 -223.60948455 344.74572808 C-225.41562962 344.74420238 -227.22177469 344.74268202 -229.02791977 344.74116707 C-229.91636602 344.74040925 -230.80481228 344.73965144 -231.72018114 344.73887066 C-237.95555261 344.73414486 -244.19090223 344.73596707 -250.42627335 344.74023247 C-258.03232613 344.74517842 -265.63827964 344.73908906 -273.2443098 344.71933817 C-277.1186436 344.70952255 -280.99282679 344.70429847 -284.86716843 344.71223068 C-288.42390166 344.71936325 -291.98033302 344.71230924 -295.53702687 344.69462705 C-297.41102655 344.68875984 -299.28505499 344.69732983 -301.15904057 344.70667356 C-329.63295276 344.49733758 -354.59817209 331.84631079 -374.40966797 311.87255859 C-393.39265731 291.99140388 -402.84501863 264.90661067 -402.45751953 237.58056641 C-401.30630672 210.28249428 -390.52110182 183.98489082 -370.84375 164.6796875 C-353.21212831 148.53911204 -330.78091577 136.81548846 -306.49609375 136.30078125 C-306.24085938 135.4396875 -305.985625 134.57859375 -305.72265625 133.69140625 C-302.16955378 123.86945421 -295.23325568 115.15438715 -288.49609375 107.30078125 C-287.80902344 106.49125 -287.12195313 105.68171875 -286.4140625 104.84765625 C-263.36843662 78.4386147 -233.48833502 63.19955726 -199.24609375 57.09765625 C-198.02913818 56.87589722 -198.02913818 56.87589722 -196.78759766 56.6496582 C-194.49609375 56.30078125 -194.49609375 56.30078125 -190.58203125 56.140625 C-187.18877142 55.59626204 -187.18877142 55.59626204 -185.59765625 52.1953125 C-185.08205545 50.84333378 -184.59125525 49.48172519 -184.12109375 48.11328125 C-172.91733608 19.40244562 -149.28670321 -2.34621628 -121.49609375 -14.69921875 C-119.89701172 -15.42238281 -119.89701172 -15.42238281 -118.265625 -16.16015625 C-80.20172443 -32.08041885 -32.37806739 -25.51961434 0 0 Z " fill="#77B8EA" transform="translate(409.49609375,71.69921875)"/>
<path d="M0 0 C3.26701612 2.66358727 6.39330111 5.45632415 9.50390625 8.30078125 C10.303125 9.0175 11.10234375 9.73421875 11.92578125 10.47265625 C23.25825114 21.16214912 31.2098136 34.17437024 37.50390625 48.30078125 C38.22707031 49.88246094 38.22707031 49.88246094 38.96484375 51.49609375 C51.47765633 81.14766781 49.29232467 115.41069625 37.41015625 144.71948242 C35.70301096 148.77685862 33.91060523 152.59701397 31.50390625 156.30078125 C32.01663086 156.55657959 32.52935547 156.81237793 33.05761719 157.07592773 C60.36329169 170.7990774 80.33387809 188.82472986 90.73950195 218.16040039 C98.87375435 243.00418997 96.07395164 269.25245181 84.75390625 292.55078125 C72.24892831 317.03439849 51.67303636 332.7364517 26.09680367 341.46331882 C12.06624449 345.32749588 -2.20872123 344.86645224 -16.64125228 344.80902088 C-20.57449427 344.79779875 -24.50767968 344.80989031 -28.44091797 344.81886292 C-36.12326762 344.83272095 -43.80545173 344.82529496 -51.48779334 344.81018733 C-60.45123317 344.79323813 -69.41463278 344.79654861 -78.37808369 344.80028141 C-94.37953045 344.8061462 -110.38089826 344.79204195 -126.38232422 344.76733398 C-141.87844805 344.74340926 -157.37446648 344.73633465 -172.87060547 344.74682617 C-189.78358156 344.75825659 -206.69650903 344.76013987 -223.60948455 344.74572808 C-225.41562962 344.74420238 -227.22177469 344.74268202 -229.02791977 344.74116707 C-229.91636602 344.74040925 -230.80481228 344.73965144 -231.72018114 344.73887066 C-237.95555261 344.73414486 -244.19090223 344.73596707 -250.42627335 344.74023247 C-258.03232613 344.74517842 -265.63827964 344.73908906 -273.2443098 344.71933817 C-277.1186436 344.70952255 -280.99282679 344.70429847 -284.86716843 344.71223068 C-288.42390166 344.71936325 -291.98033302 344.71230924 -295.53702687 344.69462705 C-297.41102655 344.68875984 -299.28505499 344.69732983 -301.15904057 344.70667356 C-329.63295276 344.49733758 -354.59817209 331.84631079 -374.40966797 311.87255859 C-393.39265731 291.99140388 -402.84501863 264.90661067 -402.45751953 237.58056641 C-401.30630672 210.28249428 -390.52110182 183.98489082 -370.84375 164.6796875 C-353.21212831 148.53911204 -330.78091577 136.81548846 -306.49609375 136.30078125 C-306.24085938 135.4396875 -305.985625 134.57859375 -305.72265625 133.69140625 C-302.16955378 123.86945421 -295.23325568 115.15438715 -288.49609375 107.30078125 C-287.80902344 106.49125 -287.12195313 105.68171875 -286.4140625 104.84765625 C-263.36843662 78.4386147 -233.48833502 63.19955726 -199.24609375 57.09765625 C-198.02913818 56.87589722 -198.02913818 56.87589722 -196.78759766 56.6496582 C-194.49609375 56.30078125 -194.49609375 56.30078125 -190.58203125 56.140625 C-187.18877142 55.59626204 -187.18877142 55.59626204 -185.59765625 52.1953125 C-185.08205545 50.84333378 -184.59125525 49.48172519 -184.12109375 48.11328125 C-172.91733608 19.40244562 -149.28670321 -2.34621628 -121.49609375 -14.69921875 C-119.89701172 -15.42238281 -119.89701172 -15.42238281 -118.265625 -16.16015625 C-80.20172443 -32.08041885 -32.37806739 -25.51961434 0 0 Z M-202.49609375 74.30078125 C-203.18380859 74.44080566 -203.87152344 74.58083008 -204.58007812 74.72509766 C-223.15570092 78.61724839 -240.56848691 86.53499101 -255.49609375 98.30078125 C-256.06376465 98.74647461 -256.63143555 99.19216797 -257.21630859 99.65136719 C-273.90911954 112.90916252 -285.45303583 128.97289705 -295.0859375 147.8515625 C-296.49609375 150.30078125 -296.49609375 150.30078125 -298.49609375 151.30078125 C-300.72182543 151.59852814 -302.95194045 151.86376516 -305.18359375 152.11328125 C-325.49411656 154.69340552 -341.99468359 162.05770949 -357.49609375 175.30078125 C-358.17027344 175.873125 -358.84445312 176.44546875 -359.5390625 177.03515625 C-375.91888886 192.17806209 -384.59734938 214.81585025 -385.76953125 236.66796875 C-386.54285307 261.28131 -377.62830234 283.98625426 -360.83422852 302.00292969 C-343.14897247 320.25052937 -320.25082517 328.5387331 -295.22190857 328.93569946 C-290.34256918 328.97747583 -285.46489796 328.97585731 -280.58549607 328.95440459 C-276.7210576 328.94295102 -272.85672582 328.96062206 -268.99230957 328.9743042 C-261.4482382 328.99639324 -253.90441728 328.99180018 -246.36033659 328.97724099 C-240.22295682 328.96589261 -234.08564664 328.96444188 -227.94825935 328.96986008 C-227.07069044 328.97062624 -226.19312152 328.97139241 -225.28895961 328.97218179 C-223.5055289 328.97378061 -221.72209821 328.97540168 -219.93866754 328.97704475 C-203.26437452 328.99126002 -186.59021955 328.97497565 -169.91594917 328.94804291 C-155.6444993 328.92570406 -141.37325285 328.92959253 -127.10180664 328.95263672 C-110.48065811 328.97946288 -93.85963015 328.98989122 -77.23846298 328.9745754 C-75.46234614 328.97298285 -73.68622927 328.97141099 -71.91011238 328.96986008 C-71.03649879 328.9690887 -70.1628852 328.96831732 -69.26279847 328.96752257 C-63.14050064 328.96322626 -57.01828005 328.97044711 -50.89599419 328.98225784 C-43.42396698 328.99635727 -35.952202 328.99232782 -28.4802044 328.96585412 C-24.67627033 328.95281565 -20.87277165 328.94739027 -17.06884193 328.96409988 C8.44256432 329.06669986 30.38263089 326.49380448 50.50390625 309.30078125 C52.01984375 308.15609375 52.01984375 308.15609375 53.56640625 306.98828125 C68.84936369 293.00600103 77.6343042 272.76625957 78.7578125 252.21875 C79.51411012 231.31431811 73.33139108 212.18415111 59.50390625 196.30078125 C59.05917969 195.71425781 58.61445313 195.12773437 58.15625 194.5234375 C46.50268307 179.54028002 26.86357368 171.19178642 8.50390625 168.30078125 C-8.07083456 166.52674601 -23.87859491 169.25904447 -38.56640625 177.12890625 C-42.14748041 178.56133591 -44.67377826 178.78644016 -48.49609375 178.30078125 C-51.80775898 175.44199332 -52.30288155 171.69735563 -53.24609375 167.55078125 C-58.48908689 146.23172989 -70.32473271 125.19160465 -86.49609375 110.30078125 C-87.30046875 109.47578125 -88.10484375 108.65078125 -88.93359375 107.80078125 C-89.77921875 106.97578125 -90.62484375 106.15078125 -91.49609375 105.30078125 C-92.07101562 104.72972656 -92.6459375 104.15867187 -93.23828125 103.5703125 C-111.18385807 86.60666347 -134.64660915 77.88385234 -158.49609375 73.30078125 C-159.38425781 73.11257812 -160.27242187 72.924375 -161.1875 72.73046875 C-174.58250981 70.99085709 -189.28970689 71.47724379 -202.49609375 74.30078125 Z " fill="#010100" transform="translate(409.49609375,71.69921875)"/>
<path d="M0 0 C2.38208944 1.8868751 4.67318643 3.83897984 6.94921875 5.8515625 C7.55636719 6.32851562 8.16351563 6.80546875 8.7890625 7.296875 C27.36747882 22.04164986 38.90219348 46.65724405 42.5625 69.71484375 C44.82562372 90.47033878 42.72776009 111.15927758 32.99194336 129.83422852 C32.19864301 131.36900745 31.47440709 132.93970155 30.78344727 134.52319336 C29.39400666 137.3619621 28.13731635 139.56530254 25.94921875 141.8515625 C22.11577692 143.01827875 18.59069264 142.65522287 14.63671875 142.2890625 C12.48359078 142.18640825 10.32988113 142.09532231 8.17578125 142.015625 C7.11907227 141.97211914 6.06236328 141.92861328 4.97363281 141.88378906 C-4.97250066 141.77780831 -14.76868684 144.49080418 -24.05078125 147.8515625 C-25.04078125 147.8515625 -26.03078125 147.8515625 -27.05078125 147.8515625 C-27.25123047 147.32425537 -27.45167969 146.79694824 -27.65820312 146.25366211 C-36.41318327 123.38599147 -47.02404891 104.54236397 -64.05078125 86.8515625 C-64.61925781 86.21992188 -65.18773437 85.58828125 -65.7734375 84.9375 C-88.45782727 60.45460362 -124.59372049 48.00300196 -157.05078125 45.8515625 C-154.30140693 34.77032792 -147.23763497 25.55143806 -140.05078125 16.8515625 C-139.59445312 16.26117188 -139.138125 15.67078125 -138.66796875 15.0625 C-105.6917879 -26.20483489 -41.30092967 -29.08516174 0 0 Z " fill="#FD9710" transform="translate(397.05078125,83.1484375)"/>
<path d="M0 0 C4.15136728 3.47799589 6.80800128 7.50845834 9.5 12.125 C9.88800781 12.78081055 10.27601563 13.43662109 10.67578125 14.11230469 C17.10647835 25.15095113 22.74847637 36.30370023 19.38671875 49.38671875 C16.67777525 55.4609577 11.57167966 60.20217467 5.671875 63.171875 C-0.80214965 65.17844404 -9.17277577 65.2761327 -15.4375 62.5 C-21.2850174 58.96633895 -25.93529469 53.51399984 -28 47 C-30.06102338 30.83723769 -21.02820216 16.54182737 -12.125 3.6875 C-8.90872179 -0.38014597 -5.03591137 -1.2158777 0 0 Z " fill="#000000" transform="translate(356,440)"/>
<path d="M0 0 C4.15136728 3.47799589 6.80800128 7.50845834 9.5 12.125 C9.88800781 12.78081055 10.27601563 13.43662109 10.67578125 14.11230469 C17.10647835 25.15095113 22.74847637 36.30370023 19.38671875 49.38671875 C16.67777525 55.4609577 11.57167966 60.20217467 5.671875 63.171875 C-0.80214965 65.17844404 -9.17277577 65.2761327 -15.4375 62.5 C-21.2850174 58.96633895 -25.93529469 53.51399984 -28 47 C-30.06102338 30.83723769 -21.02820216 16.54182737 -12.125 3.6875 C-8.90872179 -0.38014597 -5.03591137 -1.2158777 0 0 Z " fill="#000000" transform="translate(260,440)"/>
<path d="M0 0 C4.15136728 3.47799589 6.80800128 7.50845834 9.5 12.125 C9.88800781 12.78081055 10.27601563 13.43662109 10.67578125 14.11230469 C17.10647835 25.15095113 22.74847637 36.30370023 19.38671875 49.38671875 C16.67777525 55.4609577 11.57167966 60.20217467 5.671875 63.171875 C-0.80214965 65.17844404 -9.17277577 65.2761327 -15.4375 62.5 C-21.2850174 58.96633895 -25.93529469 53.51399984 -28 47 C-30.06102338 30.83723769 -21.02820216 16.54182737 -12.125 3.6875 C-8.90872179 -0.38014597 -5.03591137 -1.2158777 0 0 Z " fill="#000000" transform="translate(164,440)"/>
<path d="M0 0 C2.80670318 1.74209163 3.0232223 3.08205212 3.9375 6.3125 C4.02669951 11.57527118 1.61691981 14.23335319 -1.7980957 17.96459961 C-3.8787177 20.11103387 -5.99319895 22.21692813 -8.125 24.3125 C-8.85332031 25.04017578 -9.58164062 25.76785156 -10.33203125 26.51757812 C-16.76869396 32.90070113 -16.76869396 32.90070113 -21.875 33.3125 C-24.82968653 33.25340627 -25.89058393 33.06564964 -28.5 31.5 C-30.19353681 28.67743865 -30.75893288 26.42756016 -30.55859375 23.125 C-29.41104321 18.75949305 -26.1405504 16.07752933 -23 13 C-22.01049598 11.96856211 -21.02369371 10.93452808 -20.0390625 9.8984375 C-18.98571164 8.80600127 -17.931021 7.71485531 -16.875 6.625 C-16.37258789 6.10067383 -15.87017578 5.57634766 -15.35253906 5.03613281 C-10.47874711 0.12388885 -6.83546128 -1.9317608 0 0 Z " fill="#000000" transform="translate(454,47)"/>
<path d="M0 0 C2.94881633 2.0384435 5.44209364 4.49705692 8 7 C8.49967285 7.48597656 8.9993457 7.97195312 9.51416016 8.47265625 C20.88384836 19.55971968 20.88384836 19.55971968 21.3125 24.875 C21.25340627 27.82968653 21.06564964 28.89058393 19.5 31.5 C16.67743865 33.19353681 14.42756016 33.75893288 11.125 33.55859375 C6.76089825 32.41141259 4.07419595 29.14239483 1 26 C-0.03170249 24.99907945 -1.06571717 24.00053878 -2.1015625 23.00390625 C-3.1940018 21.94143249 -4.28514772 20.87762727 -5.375 19.8125 C-5.89932617 19.30170898 -6.42365234 18.79091797 -6.96386719 18.26464844 C-11.83615284 13.39871933 -11.83615284 13.39871933 -13 10 C-12.68041237 3.92783505 -12.68041237 3.92783505 -10.625 1.125 C-6.91303031 -1.44482517 -4.17576204 -1.26060741 0 0 Z " fill="#000000" transform="translate(227,47)"/>
<path d="M0 0 C1.051875 -0.00515625 2.10375 -0.0103125 3.1875 -0.015625 C4.280625 -0.00015625 5.37375 0.0153125 6.5 0.03125 C8.1396875 0.00804687 8.1396875 0.00804687 9.8125 -0.015625 C10.864375 -0.01046875 11.91625 -0.0053125 13 0 C14.43859375 0.00676758 14.43859375 0.00676758 15.90625 0.01367188 C19.21298564 0.673525 20.40908706 1.94238555 22.5 4.53125 C23.03125 6.53125 23.03125 6.53125 23 8.53125 C23.0103125 9.19125 23.020625 9.85125 23.03125 10.53125 C22.2561666 13.44921104 20.80895833 14.6243588 18.5 16.53125 C15.90625 17.04882812 15.90625 17.04882812 13 17.0625 C11.948125 17.06765625 10.89625 17.0728125 9.8125 17.078125 C8.719375 17.06265625 7.62625 17.0471875 6.5 17.03125 C4.8603125 17.05445313 4.8603125 17.05445313 3.1875 17.078125 C2.135625 17.07296875 1.08375 17.0678125 0 17.0625 C-0.9590625 17.05798828 -1.918125 17.05347656 -2.90625 17.04882812 C-6.21298564 16.388975 -7.40908706 15.12011445 -9.5 12.53125 C-10.03125 10.53125 -10.03125 10.53125 -10 8.53125 C-10.01546875 7.54125 -10.01546875 7.54125 -10.03125 6.53125 C-8.65240655 1.34030994 -4.94094259 0.02324368 0 0 Z " fill="#000000" transform="translate(473.5,159.46875)"/>
<path d="M0 0 C0.66 -0.0103125 1.32 -0.020625 2 -0.03125 C4.91796104 0.7438334 6.0931088 2.19104167 8 4.5 C8.51757812 7.09375 8.51757812 7.09375 8.53125 10 C8.53640625 11.051875 8.5415625 12.10375 8.546875 13.1875 C8.53140625 14.280625 8.5159375 15.37375 8.5 16.5 C8.51546875 17.593125 8.5309375 18.68625 8.546875 19.8125 C8.54171875 20.864375 8.5365625 21.91625 8.53125 23 C8.52673828 23.9590625 8.52222656 24.918125 8.51757812 25.90625 C7.857725 29.21298564 6.58886445 30.40908706 4 32.5 C2 33.03125 2 33.03125 0 33 C-0.99 33.01546875 -0.99 33.01546875 -2 33.03125 C-4.91796104 32.2561666 -6.0931088 30.80895833 -8 28.5 C-8.51757812 25.90625 -8.51757812 25.90625 -8.53125 23 C-8.53640625 21.948125 -8.5415625 20.89625 -8.546875 19.8125 C-8.53140625 18.719375 -8.5159375 17.62625 -8.5 16.5 C-8.51546875 15.406875 -8.5309375 14.31375 -8.546875 13.1875 C-8.53914063 11.6096875 -8.53914063 11.6096875 -8.53125 10 C-8.52673828 9.0409375 -8.52222656 8.081875 -8.51757812 7.09375 C-7.60329874 2.51200272 -4.67433964 -0.07303656 0 0 Z " fill="#000000" transform="translate(336,7.5)"/>
<path d="M0 0 C3 1 3 1 4.60546875 3.51171875 C5.12753906 4.55972656 5.64960938 5.60773438 6.1875 6.6875 C6.71730469 7.72261719 7.24710937 8.75773437 7.79296875 9.82421875 C9.07275983 13.19143606 9.39516281 15.43353055 9 19 C6.54405875 22.32274404 5.0743356 23.77618008 1 24.625 C-3.0743356 23.77618008 -4.54405875 22.32274404 -7 19 C-7.67021976 13.75739213 -6.07687509 10.63453141 -3.5 6.125 C-2.99919922 5.23554688 -2.99919922 5.23554688 -2.48828125 4.328125 C-1.67020018 2.87895283 -0.83665257 1.43853019 0 0 Z " fill="#00CDD5" transform="translate(351,464)"/>
<path d="M0 0 C3 1 3 1 4.60546875 3.51171875 C5.12753906 4.55972656 5.64960938 5.60773438 6.1875 6.6875 C6.71730469 7.72261719 7.24710937 8.75773437 7.79296875 9.82421875 C9.07275983 13.19143606 9.39516281 15.43353055 9 19 C6.54405875 22.32274404 5.0743356 23.77618008 1 24.625 C-3.0743356 23.77618008 -4.54405875 22.32274404 -7 19 C-7.67021976 13.75739213 -6.07687509 10.63453141 -3.5 6.125 C-2.99919922 5.23554688 -2.99919922 5.23554688 -2.48828125 4.328125 C-1.67020018 2.87895283 -0.83665257 1.43853019 0 0 Z " fill="#00CDD5" transform="translate(255,464)"/>
<path d="M0 0 C3 1 3 1 4.60546875 3.51171875 C5.12753906 4.55972656 5.64960938 5.60773438 6.1875 6.6875 C6.71730469 7.72261719 7.24710938 8.75773437 7.79296875 9.82421875 C9.07275983 13.19143606 9.39516281 15.43353055 9 19 C6.54405875 22.32274404 5.0743356 23.77618008 1 24.625 C-3.0743356 23.77618008 -4.54405875 22.32274404 -7 19 C-7.67021976 13.75739213 -6.07687509 10.63453141 -3.5 6.125 C-2.99919922 5.23554688 -2.99919922 5.23554688 -2.48828125 4.328125 C-1.67020018 2.87895283 -0.83665257 1.43853019 0 0 Z " fill="#00CDD5" transform="translate(159,464)"/>
</svg>
